<svg width="50" height="50" viewBox="0 0 50 50" fill="none" xmlns="http://www.w3.org/2000/svg">
<path d="M1.71875 2.78125C1.2539 2.88672 0.92578 3.30469 0.937499 3.78125V39.4688C0.937499 43.7148 3.14453 46.1094 5.3125 47.1875C7.48047 48.2656 9.625 48.2188 9.625 48.2188H40.375V48.125C40.8555 48.1797 41.375 48.2188 41.375 48.2188C41.375 48.2188 43.2969 48.2305 45.2188 47.125C47.0938 46.0469 48.9414 43.7656 49.0312 39.8125C49.043 39.793 49.0547 39.7695 49.0625 39.75C49.0625 39.7266 49.0625 39.7109 49.0625 39.6875C49.0664 39.6367 49.0664 39.582 49.0625 39.5312V14.4375C49.0625 14.4258 49.0625 14.418 49.0625 14.4062C49.0625 14.4062 49.0781 13.2344 48.4688 12.0312C47.8594 10.8281 46.4414 9.53125 44.2188 9.53125V9.5H34.75V11.5H40.3125C40.1914 11.6719 40.0898 11.8281 40 12C39.3906 13.1914 39.375 14.375 39.375 14.375V38.625C39.3711 38.9844 39.5586 39.3203 39.8711 39.5039C40.1836 39.6836 40.5664 39.6836 40.8789 39.5039C41.1914 39.3203 41.3789 38.9844 41.375 38.625V14.375C41.375 14.3477 41.4141 13.625 41.7812 12.9062C42.1562 12.1758 42.6836 11.5312 44.2188 11.5312C45.75 11.5312 46.2773 12.1914 46.6562 12.9375C47.0273 13.6719 47.0938 14.4102 47.0938 14.4375H47.0625V39.5312C47.0625 43.0898 45.6406 44.5898 44.2188 45.4062C42.7969 46.2227 41.375 46.2188 41.375 46.2188C41.375 46.2188 39.6836 46.1953 38 45.3438C36.3164 44.4922 34.6875 42.9961 34.6875 39.4688V3.78125C34.6875 3.23047 34.2383 2.78125 33.6875 2.78125H1.9375C1.86328 2.77344 1.79297 2.77344 1.71875 2.78125ZM2.9375 4.78125H32.6875V39.4688C32.6875 42.7578 34.082 44.9102 35.7188 46.2188H9.625C9.61328 46.2188 9.60547 46.2188 9.59375 46.2188C9.59375 46.2188 9.16406 46.2227 8.53125 46.125C8.21484 46.0742 7.86328 45.9922 7.46875 45.875C7.07422 45.7578 6.63672 45.6133 6.21875 45.4062C6.00781 45.3008 5.79687 45.1914 5.59375 45.0625C4.16406 44.1641 2.9375 42.6133 2.9375 39.4688V4.78125ZM6.9375 11C6.38672 11.0781 6 11.5898 6.07812 12.1406C6.15625 12.6914 6.66797 13.0781 7.21875 13H26.9375C27.2969 13.0039 27.6328 12.8164 27.8164 12.5039C27.9961 12.1914 27.9961 11.8086 27.8164 11.4961C27.6328 11.1836 27.2969 10.9961 26.9375 11H7.21875C7.1875 11 7.15625 11 7.125 11C7.09375 11 7.0625 11 7.03125 11C7 11 6.96875 11 6.9375 11ZM6.9375 15C6.38672 15.0781 6 15.5898 6.07812 16.1406C6.15625 16.6914 6.66797 17.0781 7.21875 17H26.9375C27.2969 17.0039 27.6328 16.8164 27.8164 16.5039C27.9961 16.1914 27.9961 15.8086 27.8164 15.4961C27.6328 15.1836 27.2969 14.9961 26.9375 15H7.21875C7.1875 15 7.15625 15 7.125 15C7.09375 15 7.0625 15 7.03125 15C7 15 6.96875 15 6.9375 15ZM7.40625 23C6.85547 23.0781 6.46875 23.5898 6.54687 24.1406C6.625 24.6914 7.13672 25.0781 7.6875 25H14.4687C14.8281 25.0039 15.1641 24.8164 15.3477 24.5039C15.5273 24.1914 15.5273 23.8086 15.3477 23.4961C15.1641 23.1836 14.8281 22.9961 14.4687 23H7.6875C7.65625 23 7.625 23 7.59375 23C7.5625 23 7.53125 23 7.5 23C7.46875 23 7.4375 23 7.40625 23ZM18.9375 23C18.3867 23.0781 18 23.5898 18.0781 24.1406C18.1562 24.6914 18.668 25.0781 19.2187 25H26.9375C27.2969 25.0039 27.6328 24.8164 27.8164 24.5039C27.9961 24.1914 27.9961 23.8086 27.8164 23.4961C27.6328 23.1836 27.2969 22.9961 26.9375 23H19.2187C19.1875 23 19.1562 23 19.125 23C19.0937 23 19.0625 23 19.0312 23C19 23 18.9687 23 18.9375 23ZM7.40625 27C6.85547 27.0781 6.46875 27.5898 6.54687 28.1406C6.625 28.6914 7.13672 29.0781 7.6875 29H14.4687C14.8281 29.0039 15.1641 28.8164 15.3477 28.5039C15.5273 28.1914 15.5273 27.8086 15.3477 27.4961C15.1641 27.1836 14.8281 26.9961 14.4687 27H7.6875C7.65625 27 7.625 27 7.59375 27C7.5625 27 7.53125 27 7.5 27C7.46875 27 7.4375 27 7.40625 27ZM18.9375 27C18.3867 27.0781 18 27.5898 18.0781 28.1406C18.1562 28.6914 18.668 29.0781 19.2187 29H26.9375C27.2969 29.0039 27.6328 28.8164 27.8164 28.5039C27.9961 28.1914 27.9961 27.8086 27.8164 27.4961C27.6328 27.1836 27.2969 26.9961 26.9375 27H19.2187C19.1875 27 19.1562 27 19.125 27C19.0937 27 19.0625 27 19.0312 27C19 27 18.9687 27 18.9375 27ZM18.9375 30.7812C18.3867 30.8594 18 31.3711 18.0781 31.9219C18.1562 32.4727 18.668 32.8594 19.2187 32.7812H26.9375C27.2969 32.7852 27.6328 32.5977 27.8164 32.2852C27.9961 31.9727 27.9961 31.5898 27.8164 31.2773C27.6328 30.9648 27.2969 30.7773 26.9375 30.7812H19.2187C19.1562 30.7734 19.0937 30.7734 19.0312 30.7812C19 30.7812 18.9687 30.7812 18.9375 30.7812ZM7.40625 31C6.85547 31.0781 6.46875 31.5898 6.54687 32.1406C6.625 32.6914 7.13672 33.0781 7.6875 33H14.4687C14.8281 33.0039 15.1641 32.8164 15.3477 32.5039C15.5273 32.1914 15.5273 31.8086 15.3477 31.4961C15.1641 31.1836 14.8281 30.9961 14.4687 31H7.6875C7.65625 31 7.625 31 7.59375 31C7.5625 31 7.53125 31 7.5 31C7.46875 31 7.4375 31 7.40625 31ZM18.9375 34.7812C18.3867 34.8594 18 35.3711 18.0781 35.9219C18.1562 36.4727 18.668 36.8594 19.2187 36.7812H26.9375C27.2969 36.7852 27.6328 36.5977 27.8164 36.2852C27.9961 35.9727 27.9961 35.5898 27.8164 35.2773C27.6328 34.9648 27.2969 34.7773 26.9375 34.7812H19.2187C19.1562 34.7734 19.0937 34.7734 19.0312 34.7812C19 34.7812 18.9687 34.7812 18.9375 34.7812ZM7.40625 35C6.85547 35.0781 6.46875 35.5898 6.54687 36.1406C6.625 36.6914 7.13672 37.0781 7.6875 37H14.4687C14.8281 37.0039 15.1641 36.8164 15.3477 36.5039C15.5273 36.1914 15.5273 35.8086 15.3477 35.4961C15.1641 35.1836 14.8281 34.9961 14.4687 35H7.6875C7.65625 35 7.625 35 7.59375 35C7.5625 35 7.53125 35 7.5 35C7.46875 35 7.4375 35 7.40625 35ZM18.9375 38.5312C18.3867 38.6094 18 39.1211 18.0781 39.6719C18.1562 40.2227 18.668 40.6094 19.2187 40.5312H26.9375C27.2969 40.5352 27.6328 40.3477 27.8164 40.0352C27.9961 39.7227 27.9961 39.3398 27.8164 39.0273C27.6328 38.7148 27.2969 38.5273 26.9375 38.5312H19.2187C19.1875 38.5312 19.1562 38.5312 19.125 38.5312C19.0937 38.5312 19.0625 38.5312 19.0312 38.5312C19 38.5312 18.9687 38.5312 18.9375 38.5312ZM7.40625 39C6.85547 39.0781 6.46875 39.5898 6.54687 40.1406C6.625 40.6914 7.13672 41.0781 7.6875 41H14.4687C14.8281 41.0039 15.1641 40.8164 15.3477 40.5039C15.5273 40.1914 15.5273 39.8086 15.3477 39.4961C15.1641 39.1836 14.8281 38.9961 14.4687 39H7.6875C7.65625 39 7.625 39 7.59375 39C7.5625 39 7.53125 39 7.5 39C7.46875 39 7.4375 39 7.40625 39Z" fill="black"/>
</svg>
