<svg width="25" height="28" viewBox="0 0 25 28" fill="none" xmlns="http://www.w3.org/2000/svg">
<path d="M6.00002 0.666992C4.54101 0.666992 3.33335 1.87465 3.33335 3.33366V10.0003C1.86002 10.0003 0.666687 11.1937 0.666687 12.667V19.3337C0.666687 20.807 1.86002 22.0003 3.33335 22.0003V24.667C3.33335 26.126 4.54101 27.3337 6.00002 27.3337H22C23.459 27.3337 24.6667 26.126 24.6667 24.667V7.88574C24.6666 7.53214 24.5261 7.19305 24.2761 6.94303L18.3906 1.05762C18.1406 0.807569 17.8015 0.66706 17.4479 0.666992H6.00002ZM6.00002 3.33366H16.6667V7.33366C16.6667 8.06966 17.264 8.66699 18 8.66699H22V10.0003H6.00002V3.33366ZM3.33335 12.667H5.33335C6.43735 12.667 7.33335 13.563 7.33335 14.667C7.33335 15.771 6.43735 16.667 5.33335 16.667H4.66669V19.3337H3.33335V12.667ZM15.3334 12.667H19.3334V14.0003H16.6667V15.3337H18.7995V16.667H16.6667V19.3337H15.3334V12.667ZM8.66669 12.6982H10.8386C12.9479 12.6982 14 13.9669 14 15.5055V16.5342C14 18.0915 12.9457 19.3337 10.8203 19.3337H8.66669V12.6982ZM4.66669 14.0003V15.3337H5.33335C5.70135 15.3337 6.00002 15.035 6.00002 14.667C6.00002 14.299 5.70135 14.0003 5.33335 14.0003H4.66669ZM10 14.0316V18.0003H10.8203C11.663 18.0003 12.6667 17.7448 12.6667 16.5342V15.5055C12.6667 14.2869 11.6732 14.0316 10.8386 14.0316H10ZM6.00002 22.0003H22V24.667H6.00002V22.0003Z" fill="#E85C4A"/>
</svg>
