<svg width="16" height="16" viewBox="0 0 16 16" fill="none" xmlns="http://www.w3.org/2000/svg">
<path d="M3.99996 4.6665C2.15929 4.6665 0.666626 6.15917 0.666626 7.99984C0.666626 9.8405 2.15929 11.3332 3.99996 11.3332H6.66663V9.99984H3.99996C2.89529 9.99984 1.99996 9.1045 1.99996 7.99984C1.99996 6.89517 2.89529 5.99984 3.99996 5.99984H6.66663V4.6665H3.99996ZM9.33329 4.6665V5.99984H12C13.1046 5.99984 14 6.89517 14 7.99984C14 9.1045 13.1046 9.99984 12 9.99984H9.33329V11.3332H12C13.8406 11.3332 15.3333 9.8405 15.3333 7.99984C15.3333 6.15917 13.8406 4.6665 12 4.6665H9.33329ZM4.66663 7.33317V8.6665H11.3333V7.33317H4.66663Z" fill="#5A0A00"/>
</svg>
