<svg width="50" height="50" viewBox="0 0 50 50" fill="none" xmlns="http://www.w3.org/2000/svg">
<path d="M25 1.96875C24.5 1.96875 23.9961 2.09766 23.5508 2.35938C23.543 2.35938 23.5391 2.36328 23.5313 2.36719C23.5313 2.36719 18.2695 5.57031 13 8.84766C10.3672 10.4883 7.73438 12.1445 5.74219 13.4375C4.75 14.0859 3.91797 14.6406 3.32032 15.0625C3.01953 15.2773 2.77735 15.4531 2.58594 15.6094C2.49219 15.6875 2.41016 15.7578 2.32032 15.8516C2.27344 15.8984 2.22657 15.9492 2.16407 16.0391C2.10547 16.1289 1.98828 16.2422 1.96875 16.6016C1.9336 17.2266 2.11719 17.2578 2.21094 17.4062C2.30078 17.5547 2.40625 17.6875 2.52735 17.8438C2.77344 18.1484 3.09375 18.5117 3.47657 18.9258C3.61328 19.0703 3.81641 19.2734 3.96875 19.4336C3.96875 22.75 3.97657 29.6797 3.98047 31.2812C3.375 31.6406 3 32.293 3 33C3 33.2305 3.04297 33.4609 3.1211 33.6797C2.44532 34.2266 2 35.043 2 35.9688C2 37.1484 2.61328 38.1523 3.14453 39.0352C3.67578 39.9219 4.20703 40.6094 4.20703 40.6094C4.39453 40.8555 4.6875 41 4.9961 41C5.30469 41 5.59766 40.8594 5.78907 40.6172C5.78907 40.6172 6.32032 39.9375 6.85547 39.0586C7.39063 38.1758 8 37.1602 8 35.9688C8 35.043 7.55469 34.2266 6.87891 33.6797C6.95703 33.4609 7 33.2305 7 33C7 32.3047 6.63672 31.6602 6.04688 31.2969C6.04688 30 6.03907 25.3984 6.03516 21.5664C6.11328 21.6445 6.17578 21.7148 6.25782 21.793C8.11328 23.6523 9.69141 25.168 9.96875 25.4375C8.96485 25.9688 8 27.2305 8 29.2227C8 31.2734 9.26953 33.2227 11.2539 33.7852C12.5313 37.0234 14.1563 40.4219 16.3086 43.1094C18.5195 45.8711 21.3633 47.9258 24.832 47.9883C24.8867 47.9961 24.9375 48 24.9922 48H24.9961C25 48 25 48 25.0039 48C25.0078 48 25.0117 48 25.0156 48C25.0547 48 25.0977 47.9961 25.1406 47.9883C28.6211 47.9375 31.4727 45.8789 33.6914 43.1094C35.8438 40.4219 37.4688 37.0234 38.7461 33.7852C40.7305 33.2227 42 31.2734 42 29.2227C42 27.2305 41.0352 25.9688 40.0313 25.4375C40.3086 25.168 41.8867 23.6523 43.7461 21.793C44.75 20.7852 45.7578 19.7539 46.5234 18.9258C46.9063 18.5117 47.2266 18.1484 47.4727 17.8438C47.5938 17.6875 47.6992 17.5547 47.793 17.4062C47.8828 17.2578 48.0664 17.2266 48.0313 16.6016C48.0117 16.2383 47.8945 16.125 47.832 16.0352C47.7734 15.9492 47.7266 15.8984 47.6797 15.8516C47.5898 15.7578 47.5078 15.6875 47.4102 15.6094C47.2227 15.4531 46.9805 15.2773 46.6797 15.0625C46.082 14.6406 45.25 14.0859 44.2539 13.4375C42.2656 12.1445 39.6328 10.4883 37 8.84766C31.7305 5.57031 26.4688 2.36719 26.4688 2.36719C26.4609 2.36328 26.457 2.35938 26.4492 2.35938C26.0039 2.09766 25.5 1.96875 25 1.96875ZM25 4.03125C25.1406 4.03125 25.2813 4.07031 25.4102 4.14453C25.4297 4.15625 30.6602 7.33594 35.9063 10.6016C38.5352 12.2383 41.1641 13.8945 43.1289 15.1719C44.1133 15.8125 44.9297 16.3594 45.4883 16.75C45.543 16.7891 45.5586 16.8047 45.6055 16.8398C45.4297 17.0469 45.2617 17.2461 45.0039 17.5234C44.2734 18.3164 43.2813 19.332 42.2813 20.332C40.6602 21.957 39.5859 22.9883 39.0313 23.5195V19C39.0313 18.6406 38.8477 18.3086 38.5391 18.1211C38.5391 18.1211 33.3398 14.9688 25 14.9688C16.6602 14.9688 11.4609 18.1211 11.4609 18.1211C11.1523 18.3086 10.9688 18.6406 10.9688 19V23.5195C10.4141 22.9883 9.33985 21.957 7.71875 20.332C7.03907 19.6563 6.46094 19.0469 5.86719 18.4258C5.79688 18.3125 5.69922 18.2148 5.58985 18.1406C5.40625 17.9453 5.15235 17.6992 4.99219 17.5273C4.73828 17.2461 4.57032 17.043 4.39063 16.8398C4.44141 16.8008 4.45703 16.7891 4.51172 16.75C5.07032 16.3555 5.88672 15.8086 6.8711 15.1719C8.83594 13.8906 11.4648 12.2383 14.0938 10.6016C19.3398 7.33594 24.5703 4.15625 24.5898 4.14453C24.7188 4.07031 24.8594 4.03125 25 4.03125ZM25 17.0312C32.2422 17.0312 36.332 19.3008 36.9688 19.668V23.6406C35.3945 23.1172 31.5391 21.9688 25 21.9688C18.4609 21.9688 14.6055 23.1172 13.0313 23.6406V19.668C13.668 19.3008 17.7578 17.0312 25 17.0312ZM25 24.0312C31.3906 24.0312 35.6367 25.2852 37 25.75V27.1133L38.1094 26.9961C38.1094 26.9961 38.6016 26.957 39.0625 27.1836C39.5273 27.4062 40 27.7305 40 29.2227C40 30.625 39.0938 31.8828 37.8984 32.0039L37.2852 32.0664L37.0664 32.6406C35.8086 35.8984 34.1602 39.3203 32.1289 41.8594C30.0977 44.3945 27.7695 46 25.0039 46C25 46 25 46 24.9961 46C22.2305 46 19.9023 44.3945 17.8711 41.8594C15.8398 39.3203 14.1914 35.8984 12.9336 32.6406L12.7148 32.0664L12.1016 32.0039C10.9063 31.8828 10 30.625 10 29.2227C10 27.7305 10.4727 27.4062 10.9375 27.1836C11.3984 26.957 11.8906 26.9961 11.8906 26.9961L13 27.1133V25.75C14.3633 25.2852 18.6094 24.0312 25 24.0312ZM5 35C5.57422 35 6 35.4336 6 35.9688C6 36.2539 5.60938 37.25 5.14453 38.0156C5.07422 38.1328 5.07422 38.1172 5.00391 38.2227C4.9336 38.1094 4.92969 38.125 4.85547 38.0039C4.38672 37.2305 4 36.2148 4 35.9688C4 35.4336 4.42578 35 5 35Z" fill="black"/>
</svg>
