<svg width="50" height="50" viewBox="0 0 50 50" fill="none" xmlns="http://www.w3.org/2000/svg">
<path d="M47 6C45.6289 6 44.4766 6.95312 44.125 8.21875L5.6875 19.75C5.20703 18.7266 4.19531 18 3 18C1.35547 18 0 19.3555 0 21V27C0 28.6445 1.35547 30 3 30C4.17578 30 5.19531 29.3086 5.6875 28.3125L13.6562 31.0938L12.875 33.1562C12.875 33.168 12.875 33.1758 12.875 33.1875C12.1016 35.5078 13.3672 38.0391 15.6875 38.8125L19.8438 40.2188C22.1641 40.9922 24.6953 39.7266 25.4688 37.4062L26.125 35.4375L44.125 41.75C44.4688 43.0312 45.6211 44 47 44C48.6445 44 50 42.6445 50 41V9C50 7.35547 48.6445 6 47 6ZM47 8C47.5625 8 48 8.4375 48 9V41C48 41.5625 47.5625 42 47 42C46.4453 42 46.0156 41.582 46 41.0312C46 41.0195 46 41.0117 46 41V9C46 8.96875 46 8.9375 46 8.90625C46.0469 8.38672 46.4688 8 47 8ZM44 10.3438V39.5938L6 26.2812V21.75L44 10.3438ZM3 20C3.53125 20 3.95312 20.3867 4 20.9062C4.00391 20.9375 4 20.9688 4 21V27C4 27.0312 4 27.0625 4 27.0938C3.95312 27.6133 3.53125 28 3 28C2.4375 28 2 27.5625 2 27V21C2 20.4375 2.4375 20 3 20ZM15.5312 31.75L24.2188 34.7812L23.5625 36.75C23.1328 38.0469 21.7656 38.7461 20.4688 38.3125L16.3125 36.9375C15.0312 36.5078 14.3711 35.1289 14.7812 33.8438C14.7852 33.832 14.7773 33.8242 14.7812 33.8125L15.5312 31.75Z" fill="black"/>
</svg>
