<svg width="50" height="50" fill="none" xmlns="http://www.w3.org/2000/svg"><path d="M1.719 2.781a1.002 1.002 0 0 0-.782 1V39.47c0 4.246 2.208 6.64 4.375 7.718 2.168 1.079 4.313 1.032 4.313 1.032h30.75v-.094c.48.055 1 .094 1 .094s1.922.011 3.844-1.094c1.875-1.078 3.722-3.36 3.812-7.313a.456.456 0 0 0 .032-.062v-.063c.003-.05.003-.105 0-.156V14.406s.015-1.172-.594-2.375c-.61-1.203-2.028-2.5-4.25-2.5V9.5H34.75v2h5.563A4.37 4.37 0 0 0 40 12c-.61 1.191-.625 2.375-.625 2.375v24.25c-.004.36.184.695.496.879.313.18.695.18 1.008 0 .312-.184.5-.52.496-.879v-24.25c0-.027.04-.75.406-1.469.375-.73.903-1.375 2.438-1.375 1.531 0 2.058.66 2.437 1.406.371.735.438 1.473.438 1.5h-.032v25.094c0 3.559-1.421 5.059-2.843 5.875-1.422.817-2.844.813-2.844.813s-1.691-.024-3.375-.875c-1.684-.852-3.313-2.348-3.313-5.875V3.78c0-.55-.449-1-1-1H1.938a1.024 1.024 0 0 0-.218 0Zm1.218 2h29.75V39.47c0 3.289 1.395 5.441 3.032 6.75H9.594s-.43.004-1.063-.094a8.472 8.472 0 0 1-1.062-.25 7.83 7.83 0 0 1-1.25-.469 6.966 6.966 0 0 1-.625-.343c-1.43-.899-2.657-2.45-2.657-5.594V4.78Zm4 6.219c-.55.078-.937.59-.859 1.14.078.551.59.938 1.14.86h19.72c.359.004.695-.184.878-.496a1.01 1.01 0 0 0 0-1.008c-.183-.312-.52-.5-.878-.496h-20Zm0 4c-.55.078-.937.59-.859 1.14.078.551.59.938 1.14.86h19.72c.359.004.695-.184.878-.496a1.01 1.01 0 0 0 0-1.008c-.183-.312-.52-.5-.878-.496h-20Zm.47 8c-.552.078-.938.59-.86 1.14.078.551.59.938 1.14.86h6.782c.36.004.695-.184.879-.496a1.01 1.01 0 0 0 0-1.008c-.184-.312-.52-.5-.88-.496H7.407Zm11.53 0c-.55.078-.937.59-.859 1.14.078.551.59.938 1.14.86h7.72c.359.004.695-.184.878-.496a1.01 1.01 0 0 0 0-1.008c-.183-.312-.52-.5-.878-.496h-8Zm-11.53 4c-.552.078-.938.59-.86 1.14.078.551.59.938 1.14.86h6.782c.36.004.695-.184.879-.496a1.01 1.01 0 0 0 0-1.008c-.184-.312-.52-.5-.88-.496H7.407Zm11.53 0c-.55.078-.937.59-.859 1.14.078.551.59.938 1.14.86h7.72c.359.004.695-.184.878-.496a1.01 1.01 0 0 0 0-1.008c-.183-.312-.52-.5-.878-.496h-8Zm0 3.781c-.55.078-.937.59-.859 1.14.078.552.59.938 1.14.86h7.72c.359.004.695-.183.878-.496a1.01 1.01 0 0 0 0-1.008c-.183-.312-.52-.5-.878-.496h-7.72a.754.754 0 0 0-.187 0h-.093ZM7.408 31c-.552.078-.938.59-.86 1.14.078.551.59.938 1.14.86h6.782c.36.004.695-.184.879-.496a1.01 1.01 0 0 0 0-1.008c-.184-.312-.52-.5-.88-.496H7.407Zm11.53 3.781c-.55.078-.937.59-.859 1.14.078.552.59.938 1.14.86h7.72c.359.004.695-.183.878-.496a1.01 1.01 0 0 0 0-1.008c-.183-.312-.52-.5-.878-.496h-7.72a.754.754 0 0 0-.187 0h-.093ZM7.408 35c-.552.078-.938.59-.86 1.14.078.551.59.938 1.14.86h6.782c.36.004.695-.184.879-.496a1.01 1.01 0 0 0 0-1.008c-.184-.312-.52-.5-.88-.496H7.407Zm11.53 3.531c-.55.078-.937.59-.859 1.14.078.552.59.938 1.14.86h7.72c.359.004.695-.183.878-.496a1.01 1.01 0 0 0 0-1.008c-.183-.312-.52-.5-.878-.496h-8ZM7.408 39c-.552.078-.938.59-.86 1.14.078.551.59.938 1.14.86h6.782c.36.004.695-.184.879-.496a1.01 1.01 0 0 0 0-1.008c-.184-.312-.52-.5-.88-.496H7.407Z" fill="#000"/></svg>