<svg width="25" height="28" fill="none" xmlns="http://www.w3.org/2000/svg"><path d="M6 .667a2.684 2.684 0 0 0-2.667 2.667V10a2.666 2.666 0 0 0-2.666 2.667v6.667A2.666 2.666 0 0 0 3.333 22v2.667A2.685 2.685 0 0 0 6 27.334h16a2.685 2.685 0 0 0 2.667-2.667V7.886c0-.354-.14-.693-.39-.943L18.39 1.058a1.34 1.34 0 0 0-.943-.391H6Zm0 2.667h10.667v4c0 .736.597 1.333 1.333 1.333h4V10H6V3.334Zm-2.667 9.333h2a2 2 0 0 1 0 4h-.666v2.667H3.333v-6.667Zm12 0h4V14h-2.666v1.334h2.132v1.333h-2.132v2.667h-1.334v-6.667Zm-6.666.031h2.172c2.109 0 3.161 1.269 3.161 2.807v1.03c0 1.556-1.054 2.799-3.18 2.799H8.667v-6.636Zm-4 1.302v1.334h.666a.667.667 0 0 0 0-1.334h-.666Zm5.333.032V18h.82c.843 0 1.847-.255 1.847-1.466v-1.028c0-1.22-.994-1.474-1.828-1.474H10ZM6 22h16v2.667H6V22Z" fill="#E85C4A"/></svg>