<svg width="157" height="94" fill="none" xmlns="http://www.w3.org/2000/svg"><path d="M82.78 76.263c.49-5.522-1.045-10.286-4.557-14.158-3.512-3.872-8.182-6.084-13.872-6.56a30.194 30.194 0 0 0-2.329-.098c-4.922 0-9.19 1.38-12.714 4.117-4.053 3.152-6.37 7.635-6.873 13.34-.491 5.533.931 10.334 4.217 14.292 3.285 3.958 7.817 6.206 13.47 6.67 5.79.476 10.963-.94 15.332-4.24 4.38-3.273 6.835-7.768 7.326-13.363ZM66.642 92.498a11.122 11.122 0 0 1-5.01.757c-1.939-.159-3.764-.855-5.45-2.064-2.77-1.992-4.747-5.156-5.867-9.394-.881-3.433-1.158-7.171-.806-11.105.353-4.043 1.612-7.451 3.727-10.15 2.53-3.226 5.815-4.692 9.793-4.362 2.077.171 3.965.83 5.614 1.967 2.808 1.918 4.822 4.898 5.98 8.856.97 3.299 1.296 6.89.956 10.69-.289 3.236-1.095 6.12-2.391 8.599-1.637 3.03-3.84 5.106-6.546 6.206Z" fill="#fff"/><path d="M6.017 61.018V85.9l6.433 2.724a5.23 5.23 0 0 1-.063-.892V74.76H33.61v13.645c0 2.077-.605 3.457-1.813 4.13-.793.415-2.165.634-4.217.659v.782h18.353v-.782c-1.963-.025-3.31-.22-4.078-.599-1.297-.672-1.939-2.003-1.939-3.97V60.798c0-1.93.667-3.25 2.002-3.91.818-.415 2.127-.622 4.028-.647v-.782H27.593v.782c1.826.025 3.135.269 3.978.709 1.36.745 2.04 2.089 2.04 4.019v12.533H12.387V60.798c0-1.82.692-3.115 2.04-3.848.893-.452 2.177-.684 3.927-.72v-.783H0v.782c2.052.025 3.411.244 4.154.66 1.234.66 1.863 2.052 1.863 4.129ZM110.55 93.194v.782h17.724v-.782c-1.687-.037-2.933-.28-3.814-.77-1.247-.708-1.876-1.966-1.876-3.738V60.798c0-1.808.629-3.078 1.863-3.787.843-.489 2.102-.745 3.814-.77v-.781h-11.719l-12.828 30.417L90.648 55.46h-12.4v.782c2.669.073 4.733.928 6.156 2.528l.1.11v29.452c0 .538.907.416.907-.11l-.038-27.229.806.013L100.127 94h1.17l14.124-34.045.818.012-.037 28.133c.025 3.262-1.889 4.972-5.652 5.094Zm44.776-8.502c-2.556 2.834-4.67 4.825-6.307 5.937-2.442 1.636-5.199 2.492-8.207 2.565l.025.782h13.205L157 84.704h-1.674v-.012Z" fill="#fff"/><path d="M154.533 63.62h1.284l-3.185-8.111-26.813-.05v30.296s0 2.7 2.052 2.895c2.052.207 4.292-.147 4.292-.464v-13.62h6.647c4.909 0 7.465 2.186 7.616 6.498h1.145v-14h-1.145c-.139 4.46-2.744 6.732-7.729 6.732h-6.534V60.835c0-1.93.693-3.25 2.052-3.91.869-.44 2.329-.647 4.482-.647 3.021 0 5.992.672 8.824 2.016 2.769 1.307 5.123 3.09 7.012 5.326ZM91.227 23.369c2.001 2.247 3.486 4.019 4.443 5.265 0 0 7.855 11.507 8.787 12.704 1.712 2.211 4.141 4.605 10.385 7.22 6.244 2.614 22.13 1.844 22.055 1.026-.063-.819-16-.086-27.254-13.022-1.133-1.307-5.929-7.574-6.949-8.722-3.977-4.496-5.01-5.632-5.173-5.79l-.592-.575.83-.134c3.161-.501 5.804-1.662 7.843-3.457 2.291-2.004 3.462-4.496 3.462-7.39 0-3.323-1.548-5.9-4.746-7.892C101.549.88 98.301 0 94.651 0H70.947v.843c1.863.085 3.084.22 3.726.415 1.687.428 2.72 1.356 3.046 2.737.126.55.19 1.514.19 2.944V31.65l6.646 2.43V21.818h3.789c.869 0 1.813.501 2.883 1.552ZM84.555 7.305c0-2.406.352-4.007 1.07-4.886.868-1.063 2.48-1.576 4.922-1.576 1.611 0 2.908.098 3.877.305 2.304.501 4.104 1.71 5.35 3.628 1.133 1.723 1.712 3.787 1.712 6.157 0 2.443-.491 4.422-1.448 5.888-.969 1.478-2.656 2.626-5.022 3.408-1.712.562-3.412.855-5.086.855h-5.375V7.305ZM48.44 33.898c1.636.733 4.015.318 4.934-.073-1.246-1.637-1.775-4.019-1.775-6.438V5.424c0-1.992.604-3.31 1.813-3.934h.012c.63-.305 1.914-.525 3.94-.672V.024H38.91V.83c3.235.294 4.028.526 4.343.672 1.31.574 1.989 2.004 1.989 4.215v21.06c.1 2.724 1.209 6.217 3.197 7.121Z" fill="#fff"/><path d="M62.828 38.211c1.46-.354 3.084-1.075 4.62-2.138 3.172-2.235 4.783-5.497 4.783-9.687V12.118c0-3.432.403-6.095 1.196-7.916.793-1.82 2.38-2.956 4.72-3.359v-.83H64.314v.806c1.284.134 2.38.39 3.235.77 2.644 1.184 3.94 4.629 3.94 10.53v13.485c0 3.738-1.132 6.695-3.373 8.771-2.077 1.93-4.897 2.969-8.384 3.103 0 0-.151.415.692.806.869.391 1.033.257 2.405-.073Zm43.97-7.831c.265.611 1.045 1.43 1.574 1.796.226-.097 3.575-8.319 3.575-8.319h14.023l3.286 8.136c.553 1.38.818 2.382.818 3.066 0 1.723-1.473 2.627-4.381 2.7v.77h16.088v-.782c-2.405-.183-4.331-2.004-5.715-5.424L123.024.013h-4.569L106.798 30.38ZM118.87 6.5l6.685 16.357h-13.243L118.87 6.5ZM15.207 30.38c.264.611 1.044 1.43 1.573 1.796.227-.098 3.575-8.319 3.575-8.319h14.036l3.285 8.136c.554 1.38.819 2.382.819 3.066 0 1.723-1.473 2.627-4.381 2.7v.77h16.088v-.782c-2.405-.184-4.33-2.004-5.715-5.424L31.445.013h-4.57L15.208 30.38ZM27.279 6.5l6.684 16.357h-13.23L27.279 6.5Z" fill="#fff"/></svg>