<svg width="25" height="28" fill="none" xmlns="http://www.w3.org/2000/svg"><path d="M6 .667a2.684 2.684 0 0 0-2.667 2.666V10a2.666 2.666 0 0 0-2.666 2.666v6.667A2.666 2.666 0 0 0 3.333 22v2.666A2.685 2.685 0 0 0 6 27.334h16a2.685 2.685 0 0 0 2.667-2.666V7.884c0-.353-.14-.692-.39-.942L18.39 1.057c-.25-.25-.59-.39-.943-.39H6Zm0 2.666h10.667v4c0 .736.597 1.333 1.333 1.333h4V10H6V3.333Zm-2.667 9.334h2a2 2 0 0 1 0 4h-.666v2.666H3.333v-6.666Zm12 0h4V14h-2.666v1.333h2.132v1.333h-2.132v2.667h-1.334v-6.666Zm-6.666.03h2.172c2.109 0 3.161 1.27 3.161 2.808v1.029c0 1.557-1.054 2.8-3.18 2.8H8.667v-6.636Zm-4 1.303v1.333h.666a.667.667 0 0 0 0-1.333h-.666Zm5.333.03V18h.82c.843 0 1.847-.256 1.847-1.466v-1.029c0-1.219-.994-1.474-1.828-1.474H10ZM6 22h16v2.666H6V22Z" fill="#AB1300"/></svg>