<svg width="80" height="48" fill="none" xmlns="http://www.w3.org/2000/svg"><path d="M42.18 38.943c.251-2.82-.532-5.253-2.321-7.23-1.79-1.977-4.17-3.106-7.069-3.35-.404-.03-.795-.05-1.186-.05-2.508 0-4.683.705-6.479 2.103-2.065 1.609-3.246 3.898-3.502 6.811-.25 2.826.474 5.278 2.149 7.299 1.674 2.02 3.983 3.168 6.863 3.405 2.95.244 5.587-.48 7.813-2.164 2.232-1.672 3.483-3.967 3.733-6.824Zm-8.222 8.29a5.655 5.655 0 0 1-2.553.387c-.988-.082-1.918-.437-2.778-1.055-1.41-1.017-2.418-2.632-2.989-4.797-.449-1.752-.59-3.661-.41-5.67.18-2.065.82-3.805 1.898-5.183 1.29-1.647 2.964-2.396 4.99-2.227a5.804 5.804 0 0 1 2.861 1.004c1.43.98 2.457 2.501 3.047 4.522.494 1.685.661 3.519.488 5.459-.148 1.652-.558 3.125-1.219 4.39-.834 1.548-1.956 2.608-3.335 3.17Z" fill="#55726D"/><path d="M3.066 31.158v12.706l3.278 1.391c-.026-.15-.032-.3-.032-.455v-6.625h10.814v6.968c0 1.06-.308 1.765-.923 2.108-.404.213-1.104.325-2.15.337v.4h9.353v-.4c-1-.012-1.687-.112-2.078-.305-.66-.343-.988-1.023-.988-2.028v-14.21c0-.985.34-1.659 1.02-1.996.417-.212 1.084-.318 2.052-.33v-.4H14.06v.4c.93.012 1.598.137 2.027.362.693.38 1.04 1.066 1.04 2.052v6.4H6.311v-6.487c0-.93.353-1.591 1.039-1.965.455-.231 1.11-.35 2.001-.368v-.4H0v.4c1.046.012 1.738.124 2.117.336.628.337.95 1.049.95 2.109Zm53.265 16.431v.399h9.031v-.4c-.86-.018-1.494-.143-1.943-.392-.635-.362-.956-1.005-.956-1.91v-14.24c0-.923.32-1.572.95-1.934.43-.25 1.07-.38 1.943-.393v-.4h-5.972l-6.536 15.533L46.19 28.32h-6.318v.4c1.36.037 2.411.473 3.136 1.29l.052.056v15.04c0 .274.462.212.462-.056l-.02-13.904.41.006L51.02 48h.596l7.197-17.385.417.007-.019 14.365c.013 1.666-.962 2.54-2.88 2.602Zm22.816-4.342c-1.302 1.447-2.38 2.464-3.214 3.031-1.244.836-2.649 1.273-4.182 1.31l.013.4h6.729L80 43.252h-.853v-.006Z" fill="#55726D"/><path d="M78.743 32.487h.654l-1.623-4.142-13.662-.025v15.47s0 1.378 1.045 1.478c1.046.106 2.187-.075 2.187-.237v-6.955h3.387c2.502 0 3.804 1.116 3.88 3.318h.585v-7.148h-.584c-.07 2.277-1.398 3.437-3.938 3.437h-3.33v-6.619c0-.985.353-1.659 1.046-1.996.443-.224 1.187-.33 2.284-.33 1.539 0 3.053.343 4.496 1.029 1.411.668 2.61 1.578 3.573 2.72ZM46.485 11.933c1.02 1.148 1.777 2.052 2.264 2.688 0 0 4.003 5.876 4.477 6.488.873 1.129 2.11 2.351 5.292 3.686s11.277.942 11.238.524c-.032-.418-8.152-.043-13.887-6.65-.577-.667-3.021-3.867-3.54-4.453-2.028-2.295-2.553-2.876-2.637-2.957l-.301-.293.423-.068c1.61-.256 2.957-.849 3.996-1.766 1.167-1.023 1.764-2.295 1.764-3.774 0-1.696-.789-3.013-2.418-4.03C51.745.45 50.09 0 48.23 0H36.15v.43c.95.044 1.572.113 1.899.212.86.219 1.386.693 1.552 1.398.064.28.097.773.097 1.503v12.62l3.386 1.24v-6.262h1.931c.443 0 .924.255 1.469.792Zm-3.4-8.203c0-1.229.18-2.046.545-2.495.443-.543 1.264-.805 2.508-.805.822 0 1.482.05 1.976.156 1.174.256 2.091.874 2.726 1.853.578.88.873 1.934.873 3.144 0 1.247-.25 2.258-.738 3.006-.494.755-1.353 1.342-2.56 1.74a8.277 8.277 0 0 1-2.59.438h-2.74V3.73ZM24.683 17.31c.833.374 2.046.162 2.514-.037-.635-.836-.904-2.053-.904-3.288V2.77c0-1.017.307-1.69.923-2.009h.007c.32-.156.975-.268 2.007-.343V.012h-9.403v.412c1.648.15 2.052.268 2.213.343.667.293 1.013 1.023 1.013 2.152v10.754c.052 1.391.616 3.175 1.63 3.637Z" fill="#55726D"/><path d="M32.014 19.512c.744-.18 1.572-.549 2.354-1.092 1.617-1.141 2.438-2.807 2.438-4.946V6.188c0-1.753.205-3.113.609-4.042.404-.93 1.212-1.51 2.405-1.715V.006h-7.049v.412c.654.069 1.212.2 1.648.393 1.348.605 2.008 2.364 2.008 5.377v6.887c0 1.908-.577 3.418-1.719 4.478-1.058.986-2.495 1.516-4.272 1.585 0 0-.077.212.353.411.443.2.526.131 1.225-.037Zm22.406-3.998c.134.312.532.73.801.917.116-.05 1.822-4.248 1.822-4.248h7.146l1.674 4.154c.282.705.417 1.216.417 1.566 0 .88-.75 1.34-2.233 1.378v.393h8.198v-.399c-1.225-.094-2.207-1.023-2.912-2.77L62.688.006h-2.329l-5.94 15.508Zm6.15-12.195 3.407 8.352h-6.748l3.342-8.352ZM7.749 15.514c.134.312.532.73.801.917.116-.05 1.822-4.248 1.822-4.248h7.152l1.674 4.154c.282.705.417 1.216.417 1.566 0 .88-.75 1.34-2.232 1.378v.393h8.198v-.399c-1.226-.094-2.207-1.023-2.913-2.77L16.023.006h-2.328L7.749 15.514Zm6.15-12.195 3.407 8.352h-6.742L13.9 3.32Z" fill="#55726D"/></svg>