<svg width="24" height="21" fill="none" xmlns="http://www.w3.org/2000/svg"><path d="M10.233 1.548c-.73 0-1.331.5-1.331 1.107v.738H5.436a.537.537 0 0 0-.167 0h-.846c-.244.01-.435.183-.422.386.012.203.22.362.464.351h.485l1.595 14.945c.055.516.584.922 1.206.922h8.513c.622 0 1.151-.406 1.207-.922L19.065 4.13h.485a.471.471 0 0 0 .39-.183.32.32 0 0 0 0-.371.471.471 0 0 0-.39-.183h-4.437v-.738c0-.607-.601-1.107-1.33-1.107h-3.55Zm0 .738h3.55c.249 0 .443.161.443.369v.738H9.79v-.738c0-.208.194-.37.444-.37ZM5.838 4.13h12.34l-1.595 14.887c-.014.128-.178.242-.319.242H7.751c-.14 0-.305-.114-.319-.242L5.838 4.13Zm3.466 1.096a.606.606 0 0 0-.056.011c-.206.04-.351.194-.346.37v12.176c-.002.133.081.257.22.325a.527.527 0 0 0 .447 0c.139-.068.222-.192.22-.325V5.606a.339.339 0 0 0-.138-.28.501.501 0 0 0-.347-.1Zm2.662 0a.608.608 0 0 0-.055.011c-.207.04-.352.194-.347.37v12.176c-.002.133.081.257.22.325a.527.527 0 0 0 .447 0c.139-.068.222-.192.22-.325V5.606a.339.339 0 0 0-.138-.28.501.501 0 0 0-.347-.1Zm2.662 0a.608.608 0 0 0-.055.011c-.207.04-.352.194-.347.37v12.176c-.002.133.081.257.22.325a.527.527 0 0 0 .447 0c.139-.068.222-.192.22-.325V5.606a.339.339 0 0 0-.138-.28.501.501 0 0 0-.347-.1Z" fill="#4E4E4E"/></svg>