<svg width="24" height="24" fill="none" xmlns="http://www.w3.org/2000/svg"><g clip-path="url(#a)"><path d="M2.4 3.36c-.792 0-1.44.647-1.44 1.44v14.4c0 .793.648 1.44 1.44 1.44h2.88a.48.48 0 0 0 .48-.48v-.72a.478.478 0 0 0-.172-.367c-.138-.117-.361-.366-.294-.724a.732.732 0 0 1 .654-.587.712.712 0 0 1 .773.718c0 .29-.193.497-.308.593a.478.478 0 0 0-.172.367v.72c0 .264.216.48.48.48h5.989l.47-.96H7.2v-.032a1.683 1.683 0 0 0-.044-2.396 1.686 1.686 0 0 0-1.268-.448 1.695 1.695 0 0 0-1.537 1.369c-.103.538.062 1.065.45 1.475v.032H2.4a.48.48 0 0 1-.48-.48V4.8a.48.48 0 0 1 .48-.48h19.2a.48.48 0 0 1 .48.48v8.677l.96-.135V4.8c0-.793-.647-1.44-1.44-1.44H2.4Zm5.255 2.88c-.98.019-1.705.482-1.993 1.164-.261.615-.207 1.322-.051 2.04a.926.926 0 0 0-.122.591c.032.28.105.502.24.68.038.053.105.051.154.09.041.194.08.389.154.55.05.112.105.214.168.307.01.014.03.027.038.038.01.191.017.368.011.533-.03.058-.097.138-.313.245-.233.114-.57.227-.928.377-.356.15-.739.338-1.06.654a2.038 2.038 0 0 0-.592 1.343l-.03.508h8.7l-.03-.508a2.05 2.05 0 0 0-.59-1.343c-.32-.316-.702-.504-1.058-.654-.355-.15-.692-.264-.925-.377-.213-.107-.28-.187-.31-.245a6.805 6.805 0 0 1 .003-.533c.007-.013.028-.024.036-.037a1.85 1.85 0 0 0 .166-.308c.074-.161.115-.358.156-.55.049-.04.116-.037.154-.09.135-.178.21-.4.242-.68a.93.93 0 0 0-.132-.598c.094-.343.214-.77.173-1.298-.023-.318-.1-.656-.308-.954-.185-.266-.502-.46-.87-.544a1.547 1.547 0 0 0-1.074-.401h-.01Zm.013.96c.334.002.469.112.463.105l.116.21.236.034c.203.03.27.088.338.185.07.098.124.267.139.478.032.42-.092.97-.17 1.208l-.112.352.242.152c-.013.12-.028.132-.037.154l-.259.023-.043.393a1.65 1.65 0 0 1-.218.63l-.202.111v.285c0 .263-.034.521 0 .894l.006.064.02.058c.148.415.495.643.82.803.322.16.663.27.975.401.309.131.575.276.753.452.05.05.05.152.088.208H4.538c.04-.056.038-.156.09-.208.177-.175.447-.32.758-.452.31-.131.654-.242.979-.401.324-.16.67-.388.82-.805l.022-.056.003-.064c.034-.382-.01-.643-.01-.894v-.285l-.2-.109c0-.002 0 0-.002-.003a1.644 1.644 0 0 1-.218-.624l-.04-.398-.26-.023c-.01-.022-.023-.034-.038-.154l.22-.14-.084-.336c-.174-.7-.183-1.314-.033-1.67.15-.355.39-.561 1.123-.578Zm6.253 1.44v.96h6.24v-.96h-6.24Zm0 2.88v.96h6.24v-.96h-6.24Zm5.04 1.92-1.31 1.262-1.804-.255-.315 1.79-1.611.85.8 1.633-.8 1.631 1.61.852.316 1.788 1.803-.253L18.96 24l1.312-1.262 1.803.255.315-1.79 1.61-.85-.8-1.633.8-1.631-1.61-.851-.315-1.79-1.803.254-1.311-1.262Zm0 1.335.64.617.339.328.467-.068.88-.121.155.871.082.464.414.219.788.416-.392.797-.206.422.208.422.39.799-.788.414-.416.22-.08.463-.156.875-.88-.125-.468-.066-.338.326-.64.617-.64-.617-.34-.326-.467.066-.879.123-.156-.873-.08-.464-.416-.219-.786-.416.39-.797.208-.422-.208-.422-.39-.799.787-.414.415-.22.082-.462.154-.876.881.126.467.065.34-.326.639-.617Z" fill="#4E4E4E"/></g><defs><clipPath id="a"><path fill="#fff" d="M0 0h24v24H0z"/></clipPath></defs></svg>