<svg width="24" height="24" fill="none" xmlns="http://www.w3.org/2000/svg"><path d="M2.4 1.92a.48.48 0 0 0-.48.48v19.2c0 .265.214.48.48.48h11.816a5.76 5.76 0 0 1-.441-.96H2.88V2.88h18.24v10.895c.335.118.656.266.96.441V2.4a.48.48 0 0 0-.48-.48H2.4Zm7.68 2.4c-.79 0-1.44.65-1.44 1.44 0 .79.65 1.44 1.44 1.44h3.84c.79 0 1.44-.65 1.44-1.44 0-.79-.65-1.44-1.44-1.44h-3.84Zm0 .96h3.84a.479.479 0 1 1 0 .96h-3.84a.479.479 0 0 1-.48-.48c0-.266.214-.48.48-.48Zm9.12 9.12c-2.64 0-4.8 2.16-4.8 4.8 0 2.64 2.16 4.8 4.8 4.8 2.64 0 4.8-2.16 4.8-4.8 0-2.64-2.16-4.8-4.8-4.8Zm0 .96a3.851 3.851 0 0 1 3.84 3.84 3.851 3.851 0 0 1-3.84 3.84 3.851 3.851 0 0 1-3.84-3.84 3.851 3.851 0 0 1 3.84-3.84Zm2.064 1.632-2.592 3.024-1.584-1.2-.576.768 2.256 1.728 3.216-3.696-.72-.624Z" fill="#4E4E4E"/></svg>