<svg width="24" height="24" fill="none" xmlns="http://www.w3.org/2000/svg"><g opacity=".6" fill="#fff"><path fill-rule="evenodd" clip-rule="evenodd" d="M7.86 4.32c-3.004 0-5.46 2.426-5.46 5.415 0 4.936 4.51 7.979 7.491 9.99.721.486 1.352.912 1.809 1.29l.3.255.3-.255c.457-.378 1.088-.804 1.809-1.29 2.98-2.011 7.491-5.054 7.491-9.99 0-2.989-2.456-5.415-5.46-5.415-1.669 0-3.139.774-4.14 1.95-1.001-1.176-2.471-1.95-4.14-1.95Zm3.735 2.955A4.475 4.475 0 0 0 7.86 5.28c-2.49 0-4.5 1.99-4.5 4.455 0 4.294 3.965 7.039 6.91 9.077.642.445 1.236.857 1.73 1.243a39.238 39.238 0 0 1 1.73-1.243c2.945-2.038 6.91-4.783 6.91-9.077 0-2.466-2.012-4.455-4.5-4.455-1.568 0-2.93.793-3.735 1.995l-.405.6-.405-.6Z"/><path d="M7.86 5.28c1.567 0 2.93.793 3.735 1.995l.405.6.405-.6A4.475 4.475 0 0 1 16.14 5.28c2.488 0 4.5 1.99 4.5 4.455 0 4.294-3.965 7.039-6.91 9.077-.642.445-1.236.857-1.73 1.243a39.238 39.238 0 0 0-1.73-1.243c-2.945-2.038-6.91-4.783-6.91-9.077 0-2.466 2.01-4.455 4.5-4.455Z"/></g><path d="M7.86 4.32c-3.003 0-5.46 2.426-5.46 5.415 0 6.13 6.955 9.34 9.3 11.28l.3.255.3-.255c2.346-1.94 9.3-5.15 9.3-11.28 0-2.989-2.456-5.415-5.46-5.415-1.668 0-3.138.774-4.14 1.95-1-1.176-2.47-1.95-4.14-1.95Zm0 .96c1.568 0 2.931.793 3.735 1.995l.405.6.405-.6A4.475 4.475 0 0 1 16.14 5.28c2.488 0 4.5 1.99 4.5 4.455 0 5.231-5.885 8.164-8.64 10.32-2.754-2.156-8.64-5.089-8.64-10.32 0-2.466 2.01-4.455 4.5-4.455Z" fill="#4E4E4E"/></svg>