<svg width="24" height="24" fill="none" xmlns="http://www.w3.org/2000/svg"><g clip-path="url(#a)"><path d="M1.44 0C.65 0 0 .65 0 1.44v21.12C0 23.35.65 24 1.44 24h16.32c.79 0 1.44-.65 1.44-1.44v-3.84l-.96.96v2.88c0 .27-.21.48-.48.48H1.44c-.27 0-.48-.21-.48-.48V1.44c0-.272.208-.48.48-.48h16.32c.27 0 .48.21.48.48v2.88l.96.96V1.44C19.2.65 18.55 0 17.76 0H1.44Zm16.725 6.285a.477.477 0 0 0-.375.337.482.482 0 0 0 .135.488l4.41 4.41H8.115a.481.481 0 0 0 .045.96h14.175l-4.41 4.41a.482.482 0 0 0-.167.482.483.483 0 0 0 .36.36.482.482 0 0 0 .482-.167l5.235-5.22.33-.345-.33-.345-5.235-5.22a.482.482 0 0 0-.39-.15h-.045Z" fill="#4E4E4E"/></g><defs><clipPath id="a"><path fill="#fff" d="M0 0h24v24H0z"/></clipPath></defs></svg>