<svg width="16" height="16" fill="none" xmlns="http://www.w3.org/2000/svg"><path d="M11.22.48a.322.322 0 0 0-.19.1L.6 11.01a.32.32 0 0 0 0 .45l3.91 3.91a.32.32 0 0 0 .46 0L15.4 4.94a.319.319 0 0 0 0-.45L11.49.58a.313.313 0 0 0-.05-.05.317.317 0 0 0-.19-.05h-.03Zm.04.78 3.46 3.46-9.98 9.97-3.46-3.45.91-.91.78.78.46-.46-.78-.78.82-.82 1.74 1.74.46-.46-1.74-1.74.82-.82.78.78.46-.46-.78-.78.82-.82 1.74 1.74.46-.46-1.74-1.74.82-.82.78.78.46-.46-.78-.78.82-.82 1.74 1.74.46-.46-1.74-1.74.82-.82.78.78.46-.46-.78-.78.93-.93Z" fill="#4E4E4E"/></svg>