<svg width="24" height="24" fill="none" xmlns="http://www.w3.org/2000/svg"><path d="M12 .964C5.908.964.96 5.912.96 12.004c0 6.091 4.948 11.04 11.04 11.04 6.091 0 11.04-4.949 11.04-11.04C23.04 5.912 18.092.964 12 .964Zm0 .96c5.573 0 10.08 4.507 10.08 10.08 0 2.751-1.102 5.24-2.886 7.058-.878-.645-1.949-.968-2.855-1.29-.51-.182-.97-.362-1.305-.563-.321-.192-.5-.39-.594-.617-.044-.55-.035-.994-.032-1.517.059-.058.133-.099.193-.169.14-.165.282-.366.419-.592.233-.388.403-.862.498-1.343.146-.074.301-.09.42-.24.218-.279.365-.67.43-1.217a1.368 1.368 0 0 0-.296-1.067c.215-.704.48-1.822.39-2.979-.05-.637-.21-1.277-.595-1.81-.368-.509-.965-.875-1.73-1.007-.485-.551-1.256-.811-2.178-.811h-.009c-2.065.038-3.398.893-3.968 2.197-.543 1.24-.426 2.783-.037 4.39a1.363 1.363 0 0 0-.314 1.087c.066.546.213.938.431 1.216.119.151.274.167.42.241.095.48.265.954.498 1.342.136.226.279.427.42.592.059.07.133.112.192.17.003.523.012.966-.032 1.517-.094.226-.272.424-.593.617-.335.201-.793.382-1.303.565-.906.325-1.976.65-2.857 1.29a10.043 10.043 0 0 1-2.887-7.06C1.92 6.43 6.427 1.924 12 1.924ZM11.963 4.8c.885 0 1.442.263 1.594.53l.117.206.234.032c.603.084.94.318 1.181.651.241.334.375.8.416 1.323.082 1.046-.218 2.282-.408 2.854l-.12.363.327.198c-.034-.02.153.09.111.442-.05.427-.16.645-.233.738-.073.093-.104.081-.097.08l-.395.033-.042.395c-.037.339-.227.802-.45 1.172-.112.185-.23.35-.33.468-.1.117-.207.19-.167.17l-.256.133v.291c0 .636-.026 1.155.04 1.896l.007.063.022.06c.189.509.583.867 1.027 1.133.443.265.952.457 1.476.644.865.308 1.766.61 2.453 1.057a10.038 10.038 0 0 1-6.47 2.35c-2.464 0-4.718-.883-6.468-2.348.691-.444 1.593-.748 2.456-1.057.525-.188 1.032-.38 1.474-.647.442-.266.835-.625 1.024-1.132l.022-.06.006-.063c.067-.74.041-1.26.041-1.896v-.29l-.257-.136c.04.021-.066-.052-.165-.17a3.687 3.687 0 0 1-.33-.466c-.224-.37-.414-.833-.45-1.172l-.043-.395-.395-.033c.007.001-.024.013-.097-.08-.073-.093-.182-.31-.233-.738-.042-.351.147-.463.111-.442l.305-.184-.09-.346c-.412-1.59-.475-3.036-.05-4.007.425-.97 1.275-1.585 3.101-1.62Z" fill="#4E4E4E"/></svg>