<svg width="24" height="24" fill="none" xmlns="http://www.w3.org/2000/svg"><circle cx="12" cy="12" r="10.5" stroke="#4E4E4E"/><path d="M7.988 6.24c-.307 0-.747.114-1.108.503-.216.234-1.12 1.114-1.12 2.662 0 1.614 1.12 3.006 1.254 3.185h.001a15.215 15.215 0 0 0 1.442 1.768c.866.912 2.083 1.966 3.594 2.61.695.296 1.244.475 1.66.605.77.242 1.472.206 2 .128.394-.058.828-.248 1.258-.52.43-.271.85-.61 1.036-1.123.133-.368.2-.708.225-.988a2.18 2.18 0 0 0 .004-.377c-.009-.115.001-.202-.106-.377-.223-.367-.476-.377-.74-.508a87.143 87.143 0 0 0-.984-.476c-.418-.2-.78-.376-1.004-.455-.14-.051-.313-.124-.561-.096-.249.028-.494.207-.637.419-.135.2-.68.844-.846 1.033l-.054-.027c-.205-.102-.457-.188-.829-.384a6.857 6.857 0 0 1-1.346-.935C10.37 12.22 9.84 11.38 9.671 11.1c.012-.013-.001.003.023-.02v-.002c.172-.168.323-.37.452-.517.181-.21.261-.394.348-.566.174-.344.077-.722-.023-.92.007.013-.054-.123-.12-.278l-.24-.574c-.18-.431-.38-.915-.5-1.198-.14-.334-.33-.575-.58-.691-.248-.116-.467-.083-.476-.084a12.94 12.94 0 0 0-.567-.01Zm0 .96c.186 0 .368.002.52.01.158.007.148.008.118-.006-.03-.015.01-.02.1.193.117.277.319.763.499 1.195l.242.579c.067.159.104.248.146.332l.001.002c.042.082.038.03.024.058-.102.201-.116.25-.218.369-.156.18-.315.38-.4.463-.073.072-.206.185-.289.406-.083.221-.044.524.089.75.178.302.763 1.255 1.672 2.056.573.505 1.107.84 1.533 1.064.427.225.774.356.852.395.184.09.386.162.62.134a.935.935 0 0 0 .566-.316v-.001c.172-.194.68-.775.925-1.134.01.004.007.001.088.03v.001c.038.014.502.221.916.418.414.198.834.403.97.47.197.098.29.161.314.161.002.043.003.088-.003.158a3.01 3.01 0 0 1-.171.745c-.05.14-.314.428-.646.639-.332.21-.736.358-.886.38-.45.067-.984.09-1.571-.094a16.029 16.029 0 0 1-1.572-.572c-1.332-.569-2.464-1.536-3.273-2.387a14.252 14.252 0 0 1-.96-1.122c-.23-.3-.33-.456-.414-.566-.15-.197-1.06-1.464-1.06-2.605 0-1.208.56-1.681.864-2.008a.569.569 0 0 1 .404-.197Z" fill="#4E4E4E"/></svg>