<svg width="24" height="24" fill="none" xmlns="http://www.w3.org/2000/svg"><g clip-path="url(#a)"><path d="M13.44 0c-2.586 0-4.69 2.057-4.785 4.62l-2.4 1.095L.69 2.925A.481.481 0 0 0 0 3.36v17.28a.477.477 0 0 0 .27.435l5.76 2.88a.485.485 0 0 0 .42 0l5.565-2.79 6.03 2.79a.48.48 0 0 0 .42-.015l5.28-2.88a.48.48 0 0 0 .255-.42V3.36a.478.478 0 0 0-.705-.42l-5.13 2.79c.043-.313.075-.623.075-.93 0-2.646-2.154-4.8-4.8-4.8Zm0 .96a3.833 3.833 0 0 1 3.84 3.84c0 1.783-1.026 4.018-2.085 5.775-.876 1.451-1.478 2.173-1.755 2.52-.274-.336-.876-1.027-1.755-2.475-1.005-1.656-1.974-3.757-2.07-5.535A.474.474 0 0 0 9.6 4.71 3.834 3.834 0 0 1 13.44.96Zm0 1.92c-1.32 0-2.4 1.08-2.4 2.4 0 1.32 1.08 2.4 2.4 2.4 1.32 0 2.4-1.08 2.4-2.4 0-1.32-1.08-2.4-2.4-2.4Zm0 .96c.8 0 1.44.64 1.44 1.44 0 .8-.64 1.44-1.44 1.44-.8 0-1.44-.64-1.44-1.44 0-.8.64-1.44 1.44-1.44Zm-12.48.3 5.07 2.535c.128.06.278.06.405 0l2.25-1.02c.238 1.92 1.232 3.881 2.19 5.46a27.311 27.311 0 0 0 2.205 3.12.476.476 0 0 0 .371.163.475.475 0 0 0 .364-.178s1.09-1.328 2.19-3.15c.78-1.294 1.568-2.833 1.965-4.38l.21.03c.1.01.199-.011.285-.06l4.575-2.49v16.185l-4.815 2.625-6.03-2.775a.478.478 0 0 0-.405 0L6.24 22.98.96 20.34V4.14Z" fill="#4E4E4E"/></g><defs><clipPath id="a"><path fill="#fff" d="M0 0h24v24H0z"/></clipPath></defs></svg>