<svg width="24" height="24" fill="none" xmlns="http://www.w3.org/2000/svg"><circle cx="12" cy="12" r="9.5" stroke="#4E4E4E"/><path d="M14.158 7c-1.013 0-1.842.83-1.842 1.842 0 .154.052.292.088.435L9.25 10.856c-.339-.415-.833-.698-1.407-.698C6.83 10.158 6 10.988 6 12c0 1.013.83 1.842 1.842 1.842.574 0 1.068-.283 1.407-.698l3.155 1.579c-.036.143-.088.28-.088.435 0 1.013.83 1.842 1.842 1.842S16 16.17 16 15.158c0-1.013-.83-1.842-1.842-1.842-.574 0-1.068.282-1.407.698l-3.155-1.579c.036-.143.088-.28.088-.435 0-.154-.052-.292-.088-.435l3.155-1.579c.339.416.833.698 1.407.698 1.013 0 1.842-.83 1.842-1.842S15.17 7 14.158 7Zm0 .79c.586 0 1.053.466 1.053 1.052 0 .586-.467 1.053-1.053 1.053a1.047 1.047 0 0 1-1.053-1.053c0-.586.467-1.053 1.053-1.053Zm-6.316 3.157c.586 0 1.053.467 1.053 1.053 0 .586-.467 1.053-1.053 1.053A1.047 1.047 0 0 1 6.79 12c0-.586.467-1.053 1.053-1.053Zm6.316 3.158c.586 0 1.053.467 1.053 1.053 0 .586-.467 1.053-1.053 1.053a1.047 1.047 0 0 1-1.053-1.053c0-.586.467-1.053 1.053-1.053Z" fill="#4E4E4E"/></svg>