<svg width="24" height="24" fill="none" xmlns="http://www.w3.org/2000/svg"><path d="M12.5 0C9.873 0 7.754 2.096 7.754 4.694v.939H4.002l-.044.41-1.899 16.429L2 23h21l-.06-.528-1.898-16.429-.044-.41h-3.752v-.94C17.246 2.097 15.126 0 12.5 0Zm0 .939c2.119 0 3.797 1.66 3.797 3.755v.939H8.703v-.94C8.703 2.599 10.381.94 12.5.94ZM4.862 6.57h2.892v1.071a.929.929 0 0 0-.474.807c0 .519.424.939.949.939.524 0 .949-.42.949-.939a.929.929 0 0 0-.475-.807v-1.07h7.594v1.07a.929.929 0 0 0-.475.807c0 .519.425.939.95.939.524 0 .948-.42.948-.939a.929.929 0 0 0-.474-.807v-1.07h2.892l1.794 15.49H3.068l1.794-15.49Z" fill="#4E4E4E"/></svg>