<svg width="32" height="32" fill="none" xmlns="http://www.w3.org/2000/svg"><path d="M16 2.605C7.915 2.605 1.325 8.27 1.325 15.36c0 4.115 2.255 7.698 5.717 10.04-.005.138.005.36-.175 1.03-.225.828-.677 1.995-1.595 3.31l-.652.935h1.14c3.95 0 6.235-2.575 6.59-2.988 1.175.275 2.385.428 3.65.428 8.085 0 14.675-5.665 14.675-12.755 0-7.09-6.59-12.755-14.675-12.755Zm0 1.19c7.532 0 13.485 5.215 13.485 11.565S23.532 26.925 16 26.925c-1.305 0-2.535-.125-3.69-.428l-.37-.097-.242.298S9.85 28.782 6.9 29.285c.535-.965.93-1.865 1.112-2.545.258-.947.263-1.587.263-1.587v-.328L8 24.65c-3.38-2.15-5.485-5.477-5.485-9.29C2.515 9.01 8.467 3.795 16 3.795ZM9.6 14.08a1.28 1.28 0 1 0-.002 2.559A1.28 1.28 0 0 0 9.6 14.08Zm6.4 0a1.28 1.28 0 1 0-.001 2.559A1.28 1.28 0 0 0 16 14.08Zm6.4 0a1.28 1.28 0 1 0-.001 2.559 1.28 1.28 0 0 0 .001-2.559Z" fill="#4E4E4E"/></svg>