<svg width="187" height="16" fill="none" xmlns="http://www.w3.org/2000/svg"><g clip-path="url(#a)"><g filter="url(#b)" fill="#fff"><path d="M10 16V9a9 9 0 0 1 9-9h149a9 9 0 0 1 9 9v7H10ZM0 16c8 0 10-5.667 10-8.5V16H0Zm187 0c-8 0-10-5.667-10-8.5V16h10Z"/></g><rect x="34" y="8" width="3" height="119" rx="1.5" transform="rotate(-90 34 8)" fill="#767676"/></g><defs><clipPath id="a"><path transform="rotate(-90 0 16)" fill="#fff" d="M0 16h16v187H0z"/></clipPath><filter id="b" x="-9" y="-9" width="205" height="34" filterUnits="userSpaceOnUse" color-interpolation-filters="sRGB"><feFlood flood-opacity="0" result="BackgroundImageFix"/><feColorMatrix in="SourceAlpha" values="0 0 0 0 0 0 0 0 0 0 0 0 0 0 0 0 0 0 127 0" result="hardAlpha"/><feOffset/><feGaussianBlur stdDeviation="4.5"/><feComposite in2="hardAlpha" operator="out"/><feColorMatrix values="0 0 0 0 0 0 0 0 0 0 0 0 0 0 0 0 0 0 0.2 0"/><feBlend in2="BackgroundImageFix" result="effect1_dropShadow_173_4941"/><feBlend in="SourceGraphic" in2="effect1_dropShadow_173_4941" result="shape"/></filter></defs></svg>