<svg width="50" height="50" fill="none" xmlns="http://www.w3.org/2000/svg"><path d="M25 1.969c-.5 0-1.004.129-1.45.39-.007 0-.01.004-.019.008 0 0-5.261 3.203-10.531 6.48a503.93 503.93 0 0 0-7.258 4.59 88.117 88.117 0 0 0-2.422 1.626c-.3.214-.543.39-.734.546a3.027 3.027 0 0 0-.266.243 1.254 1.254 0 0 0-.156.187c-.059.09-.176.203-.195.563-.035.625.148.656.242.804.09.149.195.282.316.438.246.304.567.668.95 1.082.136.144.34.347.492.508 0 3.316.008 10.246.011 11.847A2 2 0 0 0 3 33c0 .23.043.46.121.68C2.445 34.227 2 35.043 2 35.969c0 1.18.613 2.183 1.145 3.066a18.008 18.008 0 0 0 1.062 1.574c.188.246.48.391.79.391.308 0 .6-.14.792-.383 0 0 .531-.68 1.066-1.558C7.391 38.176 8 37.16 8 35.969c0-.926-.445-1.742-1.121-2.29A2.02 2.02 0 0 0 7 33c0-.695-.363-1.34-.953-1.703 0-1.297-.008-5.899-.012-9.73.078.078.14.148.223.226 1.855 1.86 3.433 3.375 3.71 3.645C8.966 25.968 8 27.23 8 29.223c0 2.05 1.27 4 3.254 4.562 1.277 3.238 2.902 6.637 5.055 9.324 2.21 2.762 5.054 4.817 8.523 4.88.055.007.105.011.16.011h.024a.71.71 0 0 0 .125-.012c3.48-.05 6.332-2.11 8.55-4.879 2.153-2.687 3.778-6.086 5.055-9.324C40.73 33.223 42 31.273 42 29.223c0-1.992-.965-3.254-1.969-3.785.278-.27 1.856-1.786 3.715-3.645a114.775 114.775 0 0 0 2.777-2.867c.383-.414.704-.778.95-1.082.12-.157.226-.29.32-.438.09-.148.273-.18.238-.804-.02-.364-.136-.477-.199-.567a1.17 1.17 0 0 0-.152-.183 2.604 2.604 0 0 0-.27-.243 12.91 12.91 0 0 0-.73-.546 83.542 83.542 0 0 0-2.426-1.626A481.17 481.17 0 0 0 37 8.848a1479.67 1479.67 0 0 0-10.531-6.48c-.008-.004-.012-.008-.02-.008A2.863 2.863 0 0 0 25 1.97Zm0 2.062c.14 0 .281.04.41.114.02.011 5.25 3.19 10.496 6.457a470.913 470.913 0 0 1 7.223 4.57c.984.64 1.8 1.187 2.36 1.578.054.04.07.055.117.09-.176.207-.344.406-.602.683-.73.793-1.723 1.809-2.723 2.809a189.565 189.565 0 0 1-3.25 3.188V19c0-.36-.183-.691-.492-.879 0 0-5.2-3.152-13.539-3.152-8.34 0-13.54 3.152-13.54 3.152-.308.188-.491.52-.491.879v4.52a189.116 189.116 0 0 1-3.25-3.188c-.68-.676-1.258-1.285-1.852-1.906a.965.965 0 0 0-.277-.285c-.184-.196-.438-.442-.598-.614-.254-.28-.422-.484-.601-.687.05-.04.066-.05.12-.09a74.61 74.61 0 0 1 2.36-1.578 440.656 440.656 0 0 1 7.223-4.57A1322.441 1322.441 0 0 1 24.59 4.145.823.823 0 0 1 25 4.03Zm0 13c7.242 0 11.332 2.27 11.969 2.637v3.973c-1.575-.524-5.43-1.672-11.969-1.672-6.54 0-10.395 1.148-11.969 1.672v-3.973c.637-.367 4.727-2.637 11.969-2.637Zm0 7c6.39 0 10.637 1.254 12 1.719v1.363l1.11-.117s.492-.039.953.188c.464.222.937.546.937 2.039 0 1.402-.906 2.66-2.102 2.78l-.613.063-.219.575c-1.257 3.257-2.906 6.68-4.937 9.218C30.098 44.394 27.769 46 25.004 46h-.008c-2.765 0-5.094-1.605-7.125-4.14-2.031-2.54-3.68-5.962-4.937-9.22l-.22-.574-.612-.062C10.906 31.883 10 30.625 10 29.223c0-1.492.473-1.817.938-2.04.46-.226.953-.187.953-.187l1.109.117V25.75c1.363-.465 5.61-1.719 12-1.719ZM5 35c.574 0 1 .434 1 .969 0 .285-.39 1.281-.855 2.047-.07.117-.07.101-.141.207-.07-.114-.074-.098-.149-.22C4.387 37.23 4 36.216 4 35.97c0-.535.426-.969 1-.969Z" fill="#000"/></svg>