<svg width="50" height="50" fill="none" xmlns="http://www.w3.org/2000/svg"><path d="M47 6c-1.371 0-2.523.953-2.875 2.219L5.687 19.75C5.207 18.727 4.196 18 3 18c-1.645 0-3 1.355-3 3v6c0 1.645 1.355 3 3 3a3.007 3.007 0 0 0 2.688-1.688l7.968 2.782-.781 2.062v.032a4.46 4.46 0 0 0 2.813 5.624l4.156 1.407a4.46 4.46 0 0 0 5.625-2.813l.656-1.968 18 6.312C44.469 43.031 45.621 44 47 44c1.645 0 3-1.355 3-3V9c0-1.645-1.355-3-3-3Zm0 2c.563 0 1 .438 1 1v32c0 .563-.438 1-1 1a.983.983 0 0 1-1-.969V8.906A.988.988 0 0 1 47 8Zm-3 2.344v29.25L6 26.28v-4.53l38-11.406ZM3 20a.988.988 0 0 1 1 .906c.004.032 0 .063 0 .094v6.094A.988.988 0 0 1 3 28c-.563 0-1-.438-1-1v-6c0-.563.438-1 1-1Zm12.531 11.75 8.688 3.031-.657 1.969a2.432 2.432 0 0 1-3.093 1.563l-4.157-1.376c-1.28-.43-1.94-1.808-1.53-3.093.003-.012-.005-.02 0-.032l.75-2.062Z" fill="#000"/></svg>